<?xml version="1.0" encoding="utf-8"?>
<!-- Generator: Adobe Illustrator 19.0.0, SVG Export Plug-In . SVG Version: 6.00 Build 0)  -->
<svg version="1.1" xmlns="http://www.w3.org/2000/svg" xmlns:xlink="http://www.w3.org/1999/xlink" x="0px" y="0px"
	 viewBox="-49 141 512 512" style="enable-background:new -49 141 512 512;" xml:space="preserve">
<style type="text/css">
	.st0{fill:#FFFFFF;}
	.st1{fill:#D80027;}
</style>
<g id="Warstwa_2">
</g>
<g id="Capa_1">
	<g>
		<path class="st0" d="M238.6,444.9c-2.8,0-5.7,1.4-8.6,4.2v58.1c2.9,2.9,5.8,4.2,8.6,4.2c5,0,7.5-4.2,7.5-12.9v-40.7
			C246.1,449.3,243.6,444.9,238.6,444.9z"/>
		<path class="st0" d="M314,371.1c-35.4-4-71.3-4-107-4c-35.7,0-71.5,0-107,4c-15,1.7-27.4,12.9-30.9,28.1c-5,21.6-5,45.2-5,67.5
			s0,45.9,5,67.5c3.5,15.2,15.9,26.4,30.9,28.1c35.4,4,71.3,4,107,4c35.7,0,71.5,0,107-4c15-1.7,27.4-12.9,30.9-28.1
			c5-21.6,5-45.2,5-67.5s0-45.9-4.9-67.5C341.4,383.9,329,372.7,314,371.1z M145.7,415.9H125v109.9h-19.2V415.9H85.5v-18h60.2V415.9
			z M197.8,525.8h-17.3v-10.4c-6.9,7.9-13.4,11.7-19.7,11.7c-5.6,0-9.4-2.3-11.1-7.1c-0.9-2.9-1.5-7.4-1.5-14.2v-75.3h17.3v70.1
			c0,4,0,6.1,0.2,6.7c0.4,2.7,1.7,4,4,4c3.5,0,7.1-2.7,10.9-8.1v-72.8h17.3V525.8z M263.4,497.2c0,8.8-0.6,15.2-1.7,19.2
			c-2.3,7.1-6.9,10.7-13.8,10.7c-6.1,0-12.1-3.4-17.8-10.5v9.2h-17.3V397.9H230v41.8c5.6-6.9,11.5-10.3,17.8-10.3
			c6.9,0,11.5,3.6,13.8,10.8c1.2,3.8,1.7,10.1,1.7,19.1V497.2z M328.5,481.3H294v16.9c0,8.8,2.9,13.2,8.8,13.2
			c4.2,0,6.7-2.3,7.7-6.9c0.2-0.9,0.4-4.8,0.4-11.7h17.6v2.5c0,5.6-0.2,9.4-0.4,11.1c-0.6,3.8-1.9,7.3-4,10.3
			c-4.8,6.9-11.9,10.3-20.9,10.3c-9,0-15.9-3.3-20.9-9.8c-3.7-4.8-5.5-12.3-5.5-22.4v-33.4c0-10.2,1.7-17.6,5.3-22.4
			c5-6.5,11.8-9.8,20.7-9.8c8.7,0,15.5,3.2,20.4,9.8c3.6,4.8,5.3,12.3,5.3,22.4V481.3z"/>
		<path class="st0" d="M302.7,444.9c-5.8,0-8.7,4.4-8.7,13.2v8.8h17.3v-8.8C311.3,449.3,308.4,444.9,302.7,444.9z"/>
		<path class="st0" d="M146.2,357v-52.3l23.3-76.9h-19.6l-13.2,50.7l-13.7-50.7h-20.3c4.1,12,8.3,24,12.4,36
			c6.2,18,10.1,31.6,11.8,40.9V357H146.2z"/>
		<path class="st0" d="M195.4,358.3c8.7,0,15.5-3.3,20.3-9.9c3.7-4.8,5.4-12.4,5.4-22.6v-33.7c0-10.3-1.7-17.8-5.4-22.7
			c-4.8-6.6-11.6-9.9-20.3-9.9c-8.7,0-15.5,3.3-20.3,9.9c-3.7,4.9-5.5,12.4-5.5,22.7v33.7c0,10.2,1.7,17.8,5.5,22.6
			C179.9,355,186.7,358.3,195.4,358.3z M187,288.6c0-8.9,2.7-13.3,8.3-13.3c5.6,0,8.3,4.4,8.3,13.3v40.5c0,8.9-2.7,13.4-8.3,13.4
			c-5.6,0-8.3-4.5-8.3-13.4V288.6z"/>
		<path class="st0" d="M235.5,260.7v76.1c0,6.8,0.6,11.4,1.5,14.3c1.7,4.9,5.6,7.1,11.2,7.1c6.4,0,13-3.9,19.9-11.8V357h17.4v-96.3
			h-17.4v73.6c-3.9,5.5-7.5,8.2-11,8.2c-2.3,0-3.7-1.4-4.1-4.1c-0.2-0.6-0.2-2.7-0.2-6.8v-70.9H235.5z"/>
		<polygon class="st1" points="85.5,415.9 105.8,415.9 105.8,525.7 125,525.7 125,415.9 145.7,415.9 145.7,397.9 85.5,397.9 		"/>
		<path class="st1" d="M247.8,429.3c-6.3,0-12.3,3.5-17.8,10.3v-41.8h-17.3v127.9H230v-9.2c5.8,7.1,11.7,10.5,17.8,10.5
			c6.9,0,11.5-3.6,13.8-10.7c1.2-4,1.7-10.4,1.7-19.2v-37.9c0-9-0.6-15.3-1.7-19.1C259.3,432.9,254.7,429.3,247.8,429.3z
			 M246.1,498.5c0,8.6-2.5,12.9-7.5,12.9c-2.8,0-5.7-1.4-8.6-4.2v-58.1c2.9-2.9,5.8-4.2,8.6-4.2c5,0,7.5,4.4,7.5,13V498.5z"/>
		<path class="st1" d="M180.5,503.3c-3.8,5.4-7.4,8.1-10.9,8.1c-2.3,0-3.6-1.4-4-4c-0.2-0.6-0.2-2.7-0.2-6.7v-70.1h-17.3v75.3
			c0,6.7,0.6,11.3,1.5,14.2c1.7,4.8,5.6,7.1,11.1,7.1c6.4,0,12.9-3.8,19.7-11.7v10.4h17.3v-95.3h-17.3V503.3z"/>
		<path class="st1" d="M195.4,342.5c5.6,0,8.3-4.5,8.3-13.4v-40.5c0-8.9-2.7-13.3-8.3-13.3c-5.6,0-8.3,4.4-8.3,13.3v40.5
			C187,338,189.7,342.5,195.4,342.5z"/>
		<path class="st1" d="M207,141C65.6,141-49,255.6-49,397S65.6,653,207,653s256-114.6,256-256S348.4,141,207,141z M344.8,534.2
			c-3.5,15.2-15.9,26.4-30.9,28.1c-35.4,4-71.3,4-107,4c-35.7,0-71.5,0-107-4c-15-1.7-27.4-12.9-30.9-28.1c-5-21.6-5-45.2-5-67.5
			s0.1-45.9,5-67.5c3.5-15.2,15.9-26.4,30.9-28.1c35.4-4,71.3-4,107-4c35.7,0,71.5,0,107,4c15,1.7,27.4,12.9,30.9,28.1
			c5,21.6,4.9,45.2,4.9,67.5S349.8,512.5,344.8,534.2z M115,263.8c-4.1-12-8.3-24-12.4-36h20.3l13.7,50.7l13.2-50.7h19.6l-23.3,76.9
			V357h-19.3v-52.3C125.1,295.4,121.2,281.8,115,263.8z M169.6,325.8v-33.7c0-10.3,1.7-17.8,5.5-22.7c4.8-6.6,11.6-9.9,20.3-9.9
			c8.7,0,15.5,3.3,20.3,9.9c3.7,4.9,5.4,12.4,5.4,22.7v33.7c0,10.2-1.7,17.8-5.4,22.6c-4.8,6.6-11.6,9.9-20.3,9.9
			c-8.7,0-15.5-3.3-20.3-9.9C171.3,343.7,169.6,336.1,169.6,325.8z M253.1,338.4c0.4,2.7,1.8,4.1,4.1,4.1c3.5,0,7.1-2.7,11-8.2
			v-73.6h17.4V357h-17.4v-10.5c-6.9,8-13.6,11.8-19.9,11.8c-5.6,0-9.5-2.3-11.2-7.1c-1-2.9-1.5-7.5-1.5-14.3v-76.1h17.4v70.9
			C252.9,335.7,252.9,337.8,253.1,338.4z"/>
		<path class="st1" d="M302.8,429.3c-8.8,0-15.7,3.2-20.7,9.8c-3.7,4.8-5.3,12.3-5.3,22.4v33.4c0,10.1,1.9,17.6,5.5,22.4
			c5,6.5,11.9,9.8,20.9,9.8c9,0,16.1-3.4,20.9-10.3c2.1-3.1,3.5-6.5,4-10.3c0.2-1.7,0.4-5.6,0.4-11.1v-2.5h-17.6
			c0,6.9-0.2,10.8-0.4,11.7c-1,4.6-3.5,6.9-7.7,6.9c-5.9,0-8.8-4.4-8.8-13.2v-16.9h34.5v-19.7c0-10.2-1.7-17.6-5.3-22.4
			C318.4,432.6,311.5,429.3,302.8,429.3z M311.3,466.9H294v-8.8c0-8.8,2.9-13.2,8.7-13.2c5.7,0,8.6,4.4,8.6,13.2V466.9z"/>
	</g>
</g>
</svg>
